<mxfile host="app.diagrams.net" modified="2023-04-18T16:03:53.323Z" agent="Mozilla/5.0 (Windows NT 10.0; Win64; x64) AppleWebKit/537.36 (KHTML, like Gecko) Chrome/112.0.0.0 Safari/537.36" etag="UYX0hgGZbT8APAWIe1wR" version="21.1.8" type="device">
  <diagram id="l3TE-927cMBrlqm3LzHI" name="Page-1">
    <mxGraphModel dx="797" dy="364" grid="1" gridSize="10" guides="1" tooltips="1" connect="1" arrows="1" fold="1" page="1" pageScale="1" pageWidth="827" pageHeight="1169" math="0" shadow="0">
      <root>
        <mxCell id="0" />
        <mxCell id="1" parent="0" />
        <mxCell id="XpDxXxcMDDwY8thXGxWy-1" value="" style="rounded=0;whiteSpace=wrap;html=1;" parent="1" vertex="1">
          <mxGeometry x="210" y="280" width="520" height="320" as="geometry" />
        </mxCell>
        <mxCell id="XpDxXxcMDDwY8thXGxWy-4" style="edgeStyle=orthogonalEdgeStyle;rounded=0;orthogonalLoop=1;jettySize=auto;html=1;endArrow=none;endFill=0;dashed=1;" parent="1" edge="1">
          <mxGeometry relative="1" as="geometry">
            <mxPoint x="420" y="229.9999999999999" as="targetPoint" />
            <mxPoint x="420" y="640" as="sourcePoint" />
          </mxGeometry>
        </mxCell>
        <mxCell id="XpDxXxcMDDwY8thXGxWy-5" value="&lt;font face=&quot;computer modern&quot; style=&quot;font-size: 15px;&quot;&gt;Frontend&lt;/font&gt;" style="text;html=1;align=center;verticalAlign=middle;resizable=0;points=[];autosize=1;strokeColor=none;fillColor=none;" parent="1" vertex="1">
          <mxGeometry x="280" y="290" width="80" height="30" as="geometry" />
        </mxCell>
        <mxCell id="XpDxXxcMDDwY8thXGxWy-6" value="&lt;font face=&quot;computer modern&quot; style=&quot;font-size: 15px;&quot;&gt;Backend&lt;/font&gt;" style="text;html=1;align=center;verticalAlign=middle;resizable=0;points=[];autosize=1;strokeColor=none;fillColor=none;" parent="1" vertex="1">
          <mxGeometry x="510" y="290" width="80" height="30" as="geometry" />
        </mxCell>
        <mxCell id="XpDxXxcMDDwY8thXGxWy-35" style="edgeStyle=orthogonalEdgeStyle;rounded=0;orthogonalLoop=1;jettySize=auto;html=1;exitX=1;exitY=0.5;exitDx=0;exitDy=0;entryX=0;entryY=0.5;entryDx=0;entryDy=0;startArrow=classic;startFill=1;" parent="1" source="XpDxXxcMDDwY8thXGxWy-7" target="XpDxXxcMDDwY8thXGxWy-26" edge="1">
          <mxGeometry relative="1" as="geometry" />
        </mxCell>
        <mxCell id="XpDxXxcMDDwY8thXGxWy-7" value="" style="rounded=0;whiteSpace=wrap;html=1;" parent="1" vertex="1">
          <mxGeometry x="260" y="355" width="120" height="65" as="geometry" />
        </mxCell>
        <mxCell id="XpDxXxcMDDwY8thXGxWy-12" style="edgeStyle=orthogonalEdgeStyle;rounded=0;orthogonalLoop=1;jettySize=auto;html=1;endArrow=none;endFill=0;exitX=0.5;exitY=1;exitDx=0;exitDy=0;" parent="1" source="XpDxXxcMDDwY8thXGxWy-7" target="XpDxXxcMDDwY8thXGxWy-10" edge="1">
          <mxGeometry relative="1" as="geometry">
            <mxPoint x="320" y="430" as="sourcePoint" />
          </mxGeometry>
        </mxCell>
        <mxCell id="XpDxXxcMDDwY8thXGxWy-8" value="&lt;font face=&quot;computer modern&quot; style=&quot;font-size: 13px;&quot;&gt;Grafické&lt;br&gt;&lt;/font&gt;" style="text;html=1;align=center;verticalAlign=middle;resizable=0;points=[];autosize=1;strokeColor=none;fillColor=none;" parent="1" vertex="1">
          <mxGeometry x="285" y="357" width="70" height="30" as="geometry" />
        </mxCell>
        <mxCell id="XpDxXxcMDDwY8thXGxWy-10" value="" style="rounded=0;whiteSpace=wrap;html=1;" parent="1" vertex="1">
          <mxGeometry x="270" y="470" width="100" height="50" as="geometry" />
        </mxCell>
        <mxCell id="XpDxXxcMDDwY8thXGxWy-11" value="&lt;font style=&quot;font-size: 12px;&quot; face=&quot;computer modern&quot;&gt;Electron&lt;/font&gt;" style="text;html=1;align=center;verticalAlign=middle;resizable=0;points=[];autosize=1;strokeColor=none;fillColor=none;" parent="1" vertex="1">
          <mxGeometry x="290" y="480" width="60" height="30" as="geometry" />
        </mxCell>
        <mxCell id="XpDxXxcMDDwY8thXGxWy-34" style="edgeStyle=orthogonalEdgeStyle;rounded=0;orthogonalLoop=1;jettySize=auto;html=1;exitX=1;exitY=0.5;exitDx=0;exitDy=0;entryX=0;entryY=0.5;entryDx=0;entryDy=0;endArrow=none;endFill=0;" parent="1" source="XpDxXxcMDDwY8thXGxWy-26" target="XpDxXxcMDDwY8thXGxWy-32" edge="1">
          <mxGeometry relative="1" as="geometry" />
        </mxCell>
        <mxCell id="DcQnA4giEJX7bmlx6hNR-3" style="edgeStyle=orthogonalEdgeStyle;rounded=0;orthogonalLoop=1;jettySize=auto;html=1;exitX=1;exitY=1;exitDx=0;exitDy=0;entryX=0;entryY=0;entryDx=0;entryDy=0;endArrow=none;endFill=0;" parent="1" source="XpDxXxcMDDwY8thXGxWy-26" target="DcQnA4giEJX7bmlx6hNR-1" edge="1">
          <mxGeometry relative="1" as="geometry" />
        </mxCell>
        <mxCell id="XpDxXxcMDDwY8thXGxWy-26" value="" style="rounded=0;whiteSpace=wrap;html=1;" parent="1" vertex="1">
          <mxGeometry x="460" y="355" width="120" height="65" as="geometry" />
        </mxCell>
        <mxCell id="XpDxXxcMDDwY8thXGxWy-27" style="edgeStyle=orthogonalEdgeStyle;rounded=0;orthogonalLoop=1;jettySize=auto;html=1;endArrow=none;endFill=0;exitX=0.5;exitY=1;exitDx=0;exitDy=0;" parent="1" source="XpDxXxcMDDwY8thXGxWy-26" target="XpDxXxcMDDwY8thXGxWy-29" edge="1">
          <mxGeometry relative="1" as="geometry">
            <mxPoint x="520" y="430" as="sourcePoint" />
          </mxGeometry>
        </mxCell>
        <mxCell id="XpDxXxcMDDwY8thXGxWy-28" value="&lt;font face=&quot;computer modern&quot;&gt;&lt;span style=&quot;font-size: 13px;&quot;&gt;Skript v jazyku&lt;br&gt;&lt;/span&gt;&lt;/font&gt;" style="text;html=1;align=center;verticalAlign=middle;resizable=0;points=[];autosize=1;strokeColor=none;fillColor=none;" parent="1" vertex="1">
          <mxGeometry x="470" y="365.5" width="100" height="30" as="geometry" />
        </mxCell>
        <mxCell id="XpDxXxcMDDwY8thXGxWy-29" value="" style="rounded=0;whiteSpace=wrap;html=1;" parent="1" vertex="1">
          <mxGeometry x="470" y="470" width="100" height="50" as="geometry" />
        </mxCell>
        <mxCell id="XpDxXxcMDDwY8thXGxWy-30" value="&lt;font style=&quot;font-size: 12px;&quot; face=&quot;computer modern&quot;&gt;OpenCV&lt;/font&gt;" style="text;html=1;align=center;verticalAlign=middle;resizable=0;points=[];autosize=1;strokeColor=none;fillColor=none;" parent="1" vertex="1">
          <mxGeometry x="485" y="480" width="70" height="30" as="geometry" />
        </mxCell>
        <mxCell id="XpDxXxcMDDwY8thXGxWy-32" value="" style="rounded=0;whiteSpace=wrap;html=1;" parent="1" vertex="1">
          <mxGeometry x="610" y="362.5" width="100" height="50" as="geometry" />
        </mxCell>
        <mxCell id="XpDxXxcMDDwY8thXGxWy-33" value="&lt;font style=&quot;font-size: 12px;&quot; face=&quot;computer modern&quot;&gt;keras-ocr&lt;/font&gt;" style="text;html=1;align=center;verticalAlign=middle;resizable=0;points=[];autosize=1;strokeColor=none;fillColor=none;" parent="1" vertex="1">
          <mxGeometry x="625" y="372.5" width="70" height="30" as="geometry" />
        </mxCell>
        <mxCell id="DcQnA4giEJX7bmlx6hNR-1" value="" style="rounded=0;whiteSpace=wrap;html=1;" parent="1" vertex="1">
          <mxGeometry x="610" y="470" width="100" height="50" as="geometry" />
        </mxCell>
        <mxCell id="DcQnA4giEJX7bmlx6hNR-2" value="&lt;font style=&quot;font-size: 12px;&quot; face=&quot;computer modern&quot;&gt;zvuk&lt;/font&gt;" style="text;html=1;align=center;verticalAlign=middle;resizable=0;points=[];autosize=1;strokeColor=none;fillColor=none;" parent="1" vertex="1">
          <mxGeometry x="635" y="480" width="50" height="30" as="geometry" />
        </mxCell>
        <mxCell id="yEx9BthJidWENrAiZC8S-1" value="&lt;font face=&quot;computer modern&quot; style=&quot;font-size: 13px;&quot;&gt;užívateľské&lt;br&gt;&lt;/font&gt;" style="text;html=1;align=center;verticalAlign=middle;resizable=0;points=[];autosize=1;strokeColor=none;fillColor=none;" vertex="1" parent="1">
          <mxGeometry x="280" y="372.5" width="80" height="30" as="geometry" />
        </mxCell>
        <mxCell id="yEx9BthJidWENrAiZC8S-2" value="&lt;font face=&quot;computer modern&quot; style=&quot;font-size: 13px;&quot;&gt;rozhranie&lt;/font&gt;" style="text;html=1;align=center;verticalAlign=middle;resizable=0;points=[];autosize=1;strokeColor=none;fillColor=none;" vertex="1" parent="1">
          <mxGeometry x="285" y="388" width="70" height="30" as="geometry" />
        </mxCell>
        <mxCell id="yEx9BthJidWENrAiZC8S-3" value="&lt;font face=&quot;computer modern&quot;&gt;&lt;span style=&quot;font-size: 13px;&quot;&gt;Python&lt;br&gt;&lt;/span&gt;&lt;/font&gt;" style="text;html=1;align=center;verticalAlign=middle;resizable=0;points=[];autosize=1;strokeColor=none;fillColor=none;" vertex="1" parent="1">
          <mxGeometry x="490" y="380.5" width="60" height="30" as="geometry" />
        </mxCell>
      </root>
    </mxGraphModel>
  </diagram>
</mxfile>
